<svg width="16" height="12" viewBox="0 0 16 12" fill="none" xmlns="http://www.w3.org/2000/svg">
<path fill-rule="evenodd" clip-rule="evenodd" d="M2.35531 6.34102C2.26308 6.21189 2.18453 6.09656 2.12031 5.99935C2.18453 5.90214 2.26308 5.78681 2.35531 5.65767C2.6525 5.24162 3.08745 4.68836 3.6384 4.13742C4.75721 3.01861 6.26248 1.99935 8.00033 1.99935C9.73817 1.99935 11.2434 3.01861 12.3623 4.13742C12.9132 4.68836 13.3482 5.24162 13.6453 5.65767C13.7376 5.78681 13.8161 5.90214 13.8803 5.99935C13.8161 6.09656 13.7376 6.21189 13.6453 6.34102C13.3482 6.75708 12.9132 7.31033 12.3623 7.86128C11.2434 8.98009 9.73817 9.99935 8.00033 9.99935C6.26248 9.99935 4.75721 8.98009 3.6384 7.86128C3.08745 7.31033 2.6525 6.75708 2.35531 6.34102ZM15.2456 5.66817C15.2457 5.66839 15.2458 5.66859 14.667 5.99935C15.2458 6.33011 15.2457 6.33031 15.2456 6.33053L15.2453 6.33105L15.2445 6.33243L15.2422 6.33645L15.2346 6.34947C15.2282 6.36034 15.2193 6.37553 15.2077 6.39476C15.1847 6.4332 15.1513 6.48781 15.108 6.5563C15.0214 6.69319 14.8946 6.88595 14.7303 7.11601C14.4025 7.57495 13.9208 8.18836 13.3051 8.80409C12.0905 10.0186 10.2625 11.3327 8.00033 11.3327C5.73817 11.3327 3.91011 10.0186 2.69559 8.80409C2.07987 8.18836 1.59816 7.57495 1.27034 7.11601C1.10601 6.88595 0.979273 6.69319 0.892669 6.5563C0.849342 6.48781 0.815986 6.4332 0.792921 6.39476C0.781387 6.37553 0.77242 6.36034 0.76606 6.34947L0.758477 6.33645L0.75616 6.33243L0.755371 6.33105L0.75507 6.33053C0.754945 6.33031 0.75483 6.33011 1.33366 5.99935C0.75483 5.66859 0.754945 5.66839 0.75507 5.66817L0.755371 5.66764L0.75616 5.66627L0.758477 5.66225L0.76606 5.64922C0.77242 5.63836 0.781387 5.62317 0.792921 5.60394C0.815986 5.5655 0.849342 5.51089 0.892669 5.4424C0.979273 5.30551 1.10601 5.11274 1.27034 4.88269C1.59816 4.42374 2.07987 3.81033 2.69559 3.19461C3.91011 1.98009 5.73817 0.666016 8.00033 0.666016C10.2625 0.666016 12.0905 1.98009 13.3051 3.19461C13.9208 3.81033 14.4025 4.42374 14.7303 4.88269C14.8946 5.11274 15.0214 5.30551 15.108 5.4424C15.1513 5.51089 15.1847 5.5655 15.2077 5.60394C15.2193 5.62317 15.2282 5.63836 15.2346 5.64922L15.2422 5.66225L15.2445 5.66627L15.2453 5.66764L15.2456 5.66817ZM14.667 5.99935L15.2458 5.66859C15.3629 5.87354 15.3629 6.12515 15.2458 6.33011L14.667 5.99935ZM0.75483 5.66859L1.33366 5.99935L0.75483 6.33011C0.637713 6.12515 0.637713 5.87354 0.75483 5.66859ZM6.66699 5.99935C6.66699 5.26297 7.26395 4.66602 8.00033 4.66602C8.7367 4.66602 9.33366 5.26297 9.33366 5.99935C9.33366 6.73573 8.7367 7.33268 8.00033 7.33268C7.26395 7.33268 6.66699 6.73573 6.66699 5.99935ZM8.00033 3.33268C6.52757 3.33268 5.33366 4.52659 5.33366 5.99935C5.33366 7.47211 6.52757 8.66602 8.00033 8.66602C9.47308 8.66602 10.667 7.47211 10.667 5.99935C10.667 4.52659 9.47308 3.33268 8.00033 3.33268Z" fill="#333333" fill-opacity="0.1"/>
</svg>
