<svg width="16" height="16" viewBox="0 0 16 16" fill="none" xmlns="http://www.w3.org/2000/svg">
<path fill-rule="evenodd" clip-rule="evenodd" d="M10.2931 11.7071C10.6836 12.0976 11.3168 12.0976 11.7073 11.7071C12.0978 11.3166 12.0978 10.6834 11.7073 10.2929L9.4143 7.99991L11.7071 5.70711C12.0976 5.31658 12.0976 4.68342 11.7071 4.29289C11.3166 3.90237 10.6834 3.90237 10.2929 4.29289L8.00009 6.5857L5.70728 4.29289C5.31675 3.90237 4.68359 3.90237 4.29307 4.29289C3.90254 4.68342 3.90254 5.31658 4.29307 5.70711L6.58587 7.99991L4.29289 10.2929C3.90237 10.6834 3.90237 11.3166 4.29289 11.7071C4.68342 12.0976 5.31658 12.0976 5.70711 11.7071L8.00009 9.41413L10.2931 11.7071Z" fill="white"/>
</svg>
