
<svg width="16" height="12" viewBox="0 0 16 12" fill="none" xmlns="http://www.w3.org/2000/svg">
<path fill-rule="evenodd" clip-rule="evenodd" d="M9.29322 2.0406C8.90269 1.65008 8.90269 1.01691 9.29322 0.626389C9.68374 0.235865 10.3169 0.235865 10.7074 0.626389L15.3687 5.28766C15.3874 5.30612 15.4055 5.32531 15.4227 5.3452C15.4899 5.42259 15.5433 5.50786 15.5827 5.59774C15.6369 5.72086 15.667 5.85698 15.667 6.00012C15.667 6.00217 15.667 6.00421 15.667 6.00625C15.6662 6.13316 15.6418 6.25446 15.598 6.36598C15.5492 6.49029 15.4746 6.60681 15.3741 6.70727L10.7074 11.3739C10.3169 11.7645 9.68374 11.7645 9.29322 11.3739C8.90269 10.9834 8.90269 10.3502 9.29322 9.95972L12.2528 7.00012L1.33366 7.00012C0.781373 7.00012 0.333658 6.55241 0.333658 6.00012C0.333658 5.44784 0.781373 5.00012 1.33366 5.00012L12.2527 5.00012L9.29322 2.0406Z" fill="#6B9DF7"/>
</svg>
