<svg width="24" height="24" viewBox="0 0 24 24" fill="none" xmlns="http://www.w3.org/2000/svg">
<path fill-rule="evenodd" clip-rule="evenodd" d="M23.7071 1.70711C24.0976 1.31658 24.0976 0.683417 23.7071 0.292893C23.3166 -0.0976311 22.6834 -0.0976311 22.2929 0.292893L12 10.5858L1.70711 0.292893C1.31658 -0.0976311 0.683417 -0.0976311 0.292893 0.292893C-0.0976311 0.683417 -0.0976311 1.31658 0.292893 1.70711L10.5858 12L0.292893 22.2929C-0.0976311 22.6834 -0.0976311 23.3166 0.292893 23.7071C0.683417 24.0976 1.31658 24.0976 1.70711 23.7071L12 13.4142L22.2929 23.7071C22.6834 24.0976 23.3166 24.0976 23.7071 23.7071C24.0976 23.3166 24.0976 22.6834 23.7071 22.2929L13.4142 12L23.7071 1.70711Z" fill="#333333" fill-opacity="0.3"/>
</svg>
