<svg width="20" height="24" viewBox="0 0 20 24" fill="none" xmlns="http://www.w3.org/2000/svg">
<path fill-rule="evenodd" clip-rule="evenodd" d="M6 6C6 3.79128 7.79128 2 10 2C12.2087 2 14 3.79128 14 6C14 7.13178 13.5315 8.4189 12.7482 9.41862C11.9619 10.4222 10.974 11 10 11C9.02602 11 8.0381 10.4222 7.25178 9.41862C6.46847 8.4189 6 7.13178 6 6ZM10 0C6.68672 0 4 2.68672 4 6C4 7.62922 4.65103 9.3421 5.67747 10.6521C6.7009 11.9583 8.21298 13 10 13C11.787 13 13.2991 11.9583 14.3225 10.6521C15.349 9.3421 16 7.62922 16 6C16 2.68672 13.3133 0 10 0ZM7 14C3.13372 14 0 17.1337 0 21V22C0 22.4349 0.281044 22.8199 0.695224 22.9524L1 22C0.695224 22.9524 0.69549 22.9525 0.695768 22.9526L0.696383 22.9528L0.69783 22.9533L0.701584 22.9544L0.712538 22.9579L0.74819 22.9688C0.778055 22.9778 0.820101 22.9901 0.874234 23.0054C0.982501 23.0359 1.13912 23.0781 1.34335 23.1278C1.75182 23.2274 2.35071 23.3574 3.13413 23.4867C4.7011 23.7451 7.00555 24 10 24C12.9945 24 15.2989 23.7451 16.8659 23.4867C17.6493 23.3574 18.2482 23.2274 18.6567 23.1278C18.8609 23.0781 19.0175 23.0359 19.1258 23.0054C19.1799 22.9901 19.2219 22.9778 19.2518 22.9688L19.2875 22.9579L19.2984 22.9544L19.3022 22.9533L19.3036 22.9528L19.3042 22.9526C19.3045 22.9525 19.3048 22.9524 19 22L19.3048 22.9524C19.719 22.8199 20 22.4349 20 22V21C20 17.1337 16.8663 14 13 14H7ZM3.45962 21.5133C2.84191 21.4114 2.35421 21.3102 2 21.2282V21C2 18.2383 4.23829 16 7 16H13C15.7617 16 18 18.2383 18 21V21.2282C17.6458 21.3102 17.1581 21.4114 16.5404 21.5133C15.0761 21.7549 12.8805 22 10 22C7.11945 22 4.9239 21.7549 3.45962 21.5133Z" fill="#333333"/>
</svg>
