<svg width="22" height="22" viewBox="0 0 22 22" fill="none" xmlns="http://www.w3.org/2000/svg">
<path fill-rule="evenodd" clip-rule="evenodd" d="M4 0C1.72617 0 0 1.86951 0 4C0 4.9337 0.279708 6.29218 0.527194 7.33162C0.655349 7.86987 0.783227 8.35575 0.878986 8.70687C0.92193 8.86433 0.958545 8.99516 0.985999 9.09203L0.00486571 19.0015C0.00162387 19.0342 0 19.0671 0 19.1C0 20.6523 1.34772 22 2.9 22C4.02394 22 4.79017 21.2274 5.15617 20.8583L5.20711 20.8071C5.22648 20.7877 5.24504 20.7676 5.26276 20.7467L9.16276 16.1467C9.17185 16.136 9.18072 16.125 9.18935 16.1139C9.78456 15.3487 10.4243 15 11 15C11.5493 15 12.0931 15.3119 12.845 16.1558L16.7288 20.7367C17.2337 21.3624 18.0874 22 19.1 22C20.7863 22 22 20.6177 22 19.1C22 19.0671 21.9984 19.0342 21.9951 19.0015L21.014 9.09203C21.0415 8.99516 21.0781 8.86433 21.121 8.70687C21.2168 8.35575 21.3447 7.86987 21.4728 7.33162C21.7203 6.29218 22 4.9337 22 4C22 1.86951 20.2738 0 18 0C17.4607 0 16.7003 0.156666 15.9661 0.343331C15.2039 0.537103 14.3608 0.79263 13.5984 1.04645C12.6451 1.33175 11.8554 1.5 11 1.5C10.1446 1.5 9.35486 1.33175 8.40162 1.04645C7.63919 0.79263 6.79607 0.537103 6.0339 0.343331C5.29968 0.156666 4.53929 0 4 0ZM2.99513 9.09853C3.00781 8.97054 2.99567 8.84131 2.95939 8.71791L2.95937 8.71783L2.95932 8.71769L2.95892 8.71633L2.95707 8.70999L2.94931 8.68328C2.94239 8.65939 2.93208 8.62358 2.91885 8.57709C2.89239 8.4841 2.85432 8.34859 2.80851 8.18063C2.71677 7.84425 2.59465 7.38013 2.47281 6.86838C2.22029 5.80782 2 4.6663 2 4C2 2.93049 2.87383 2 4 2C4.26071 2 4.80032 2.09333 5.5411 2.28167C6.24906 2.46166 7.05002 2.7041 7.78377 2.94868C7.79335 2.95188 7.80298 2.95492 7.81265 2.95783C8.85301 3.26993 9.85967 3.5 11 3.5C12.1403 3.5 13.147 3.26993 14.1873 2.95783C14.197 2.95492 14.2066 2.95188 14.2162 2.94868C14.95 2.7041 15.7509 2.46166 16.4589 2.28167C17.1997 2.09333 17.7393 2 18 2C19.1262 2 20 2.93049 20 4C20 4.6663 19.7797 5.80782 19.5272 6.86838C19.4053 7.38013 19.2832 7.84425 19.1915 8.18063C19.1457 8.34859 19.1076 8.4841 19.0812 8.57709C19.0679 8.62358 19.0576 8.65939 19.0507 8.68328L19.0429 8.70999L19.0411 8.71633L19.0407 8.71769L19.0406 8.71783L19.0406 8.71792C19.0043 8.84131 18.9922 8.97054 19.0049 9.09853L19.9991 19.1403C19.9783 19.6053 19.5994 20 19.1 20C18.9191 20 18.5772 19.8458 18.2809 19.4753C18.2749 19.4679 18.2689 19.4606 18.2628 19.4533L14.3628 14.8533L14.3474 14.8356C13.5033 13.886 12.4489 13 11 13C9.58365 13 8.42841 13.8418 7.62417 14.8687L3.76402 19.4217C3.56783 19.6174 3.41704 19.7618 3.2578 19.868C3.10603 19.9691 2.99678 20 2.9 20C2.46506 20 2.02581 19.5732 2.00109 19.1383L2.99513 9.09853ZM8.19612 5.11952C7.65456 5.01121 7.12773 5.36242 7.01942 5.90398C6.91111 6.44554 7.26232 6.97237 7.80388 7.08068C8.86718 7.29334 9.93285 7.4001 11 7.4001C12.0671 7.4001 13.1328 7.29334 14.1961 7.08068C14.7377 6.97237 15.0889 6.44554 14.9806 5.90398C14.8723 5.36242 14.3454 5.01121 13.8039 5.11952C12.8672 5.30686 11.9329 5.4001 11 5.4001C10.0671 5.4001 9.13282 5.30686 8.19612 5.11952Z" fill="#333333"/>
</svg>
