<svg width="16" height="14" viewBox="0 0 16 14" fill="none" xmlns="http://www.w3.org/2000/svg">
<path fill-rule="evenodd" clip-rule="evenodd" d="M15 4L11 4C10.4 4 10 3.6 10 3C10 2.4 10.4 2 11 2L15 2C15.6 2 16 2.4 16 3C16 3.6 15.6 4 15 4ZM2.2 2C2.6 0.9 3.7 -5.3765e-07 5 -4.80825e-07C6.7 -4.06516e-07 8 1.3 8 3C8 4.7 6.7 6 5 6C3.7 6 2.6 5.2 2.2 4L2 4L1 4C0.399999 4 -1.57361e-07 3.6 -1.31134e-07 3C-1.04907e-07 2.4 0.4 2 1 2L2 2L2.2 2ZM5 10L1 10C0.399999 10 -4.54598e-07 10.4 -4.80825e-07 11C-5.07052e-07 11.6 0.399999 12 0.999999 12L5 12C5.6 12 6 11.6 6 11C6 10.4 5.6 10 5 10ZM8 11C8 9.3 9.3 8 11 8C12.3 8 13.4 8.9 13.8 10L14 10L15 10C15.6 10 16 10.4 16 11C16 11.6 15.6 12 15 12L14 12L13.8 12C13.4 13.1 12.3 14 11 14C9.3 14 8 12.7 8 11Z" fill="#333333"/>
</svg>
