<svg width="20" height="20" viewBox="0 0 20 20" fill="none" xmlns="http://www.w3.org/2000/svg">
<path fill-rule="evenodd" clip-rule="evenodd" d="M10 1.66667C5.39763 1.66667 1.66667 5.39763 1.66667 10C1.66667 14.6024 5.39763 18.3333 10 18.3333C14.6024 18.3333 18.3333 14.6024 18.3333 10C18.3333 5.39763 14.6024 1.66667 10 1.66667ZM0 10C0 4.47715 4.47715 0 10 0C15.5228 0 20 4.47715 20 10C20 15.5228 15.5228 20 10 20C4.47715 20 0 15.5228 0 10ZM10 15.8333C10.4602 15.8333 10.8333 15.4602 10.8333 15C10.8333 14.5398 10.4602 14.1667 10 14.1667C9.53976 14.1667 9.16667 14.5398 9.16667 15C9.16667 15.4602 9.53976 15.8333 10 15.8333ZM8.54729 6.22869C9.25102 5.9177 10.055 5.78514 10.735 5.84897C11.4353 5.91472 11.8448 6.16539 12.0157 6.44203C12.4292 7.11121 12.2662 8.04399 11.1617 8.97985C9.92678 10.0263 9.16628 10.8272 9.16628 12.0831C9.16628 12.5434 9.53938 12.9165 9.99962 12.9165C10.4599 12.9165 10.8329 12.5434 10.8329 12.0831C10.8329 11.6725 10.9741 11.3233 12.2392 10.2514C13.6347 9.06895 14.4783 7.25674 13.4335 5.56591C12.8753 4.66256 11.8526 4.2799 10.8907 4.1896C9.90843 4.09739 8.81988 4.28607 7.87361 4.70425C7.45264 4.89028 7.2622 5.38235 7.44823 5.80331C7.63426 6.22428 8.12633 6.41473 8.54729 6.22869Z" fill="#F7C56B"/>
</svg>
