<svg width="20" height="20" viewBox="0 0 20 20" fill="none" xmlns="http://www.w3.org/2000/svg">
<path d="M1.6665 6.66602H18.3332" stroke="black" stroke-width="1.66667" stroke-miterlimit="10" stroke-linecap="round" stroke-linejoin="round"/>
<path d="M6.6665 6.66602V18.3327" stroke="black" stroke-width="1.66667" stroke-miterlimit="10" stroke-linecap="round" stroke-linejoin="round"/>
<path d="M16.667 18.3327H3.33366C2.89163 18.3327 2.46771 18.1571 2.15515 17.8445C1.84259 17.532 1.66699 17.108 1.66699 16.666V3.33268C1.66699 2.89065 1.84259 2.46673 2.15515 2.15417C2.46771 1.84161 2.89163 1.66602 3.33366 1.66602H16.667C17.109 1.66602 17.5329 1.84161 17.8455 2.15417C18.1581 2.46673 18.3337 2.89065 18.3337 3.33268V16.666C18.3337 17.108 18.1581 17.532 17.8455 17.8445C17.5329 18.1571 17.109 18.3327 16.667 18.3327Z" stroke="black" stroke-width="1.66667" stroke-miterlimit="10" stroke-linecap="round" stroke-linejoin="round"/>
</svg>
