<svg width="20" height="20" viewBox="0 0 20 20" fill="none" xmlns="http://www.w3.org/2000/svg">
<path d="M1.66602 6.66699H18.3327" stroke="#F7C56B" stroke-width="1.66667" stroke-miterlimit="10" stroke-linecap="round" stroke-linejoin="round"/>
<path d="M6.66602 6.66699V18.3337" stroke="#F7C56B" stroke-width="1.66667" stroke-miterlimit="10" stroke-linecap="round" stroke-linejoin="round"/>
<path d="M16.666 18.3337H3.33268C2.89065 18.3337 2.46673 18.1581 2.15417 17.8455C1.84161 17.5329 1.66602 17.109 1.66602 16.667V3.33366C1.66602 2.89163 1.84161 2.46771 2.15417 2.15515C2.46673 1.84259 2.89065 1.66699 3.33268 1.66699H16.666C17.108 1.66699 17.532 1.84259 17.8445 2.15515C18.1571 2.46771 18.3327 2.89163 18.3327 3.33366V16.667C18.3327 17.109 18.1571 17.5329 17.8445 17.8455C17.532 18.1581 17.108 18.3337 16.666 18.3337Z" stroke="#F7C56B" stroke-width="1.66667" stroke-miterlimit="10" stroke-linecap="round" stroke-linejoin="round"/>
</svg>
