<svg width="16" height="16" viewBox="0 0 16 16" fill="none" xmlns="http://www.w3.org/2000/svg">
<path fill-rule="evenodd" clip-rule="evenodd" d="M12.6 5H1C0.4 5 0 4.6 0 4C0 3.4 0.4 3 1 3H12.6L11.3 1.7C10.9 1.3 10.9 0.7 11.3 0.3C11.7 -0.1 12.3 -0.1 12.7 0.3L15.7 3.3C16.1 3.7 16.1 4.3 15.7 4.7L12.7 7.7C12.5 7.9 12.3 8 12 8C11.7 8 11.5 7.9 11.3 7.7C10.9 7.3 10.9 6.7 11.3 6.3L12.6 5ZM3.4 11H15C15.6 11 16 11.4 16 12C16 12.6 15.6 13 15 13H3.4L4.7 14.3C5.1 14.7 5.1 15.3 4.7 15.7C4.5 15.9 4.3 16 4 16C3.7 16 3.5 15.9 3.3 15.7L0.3 12.7C-0.1 12.3 -0.1 11.7 0.3 11.3L3.3 8.3C3.7 7.9 4.3 7.9 4.7 8.3C5.1 8.7 5.1 9.3 4.7 9.7L3.4 11Z" fill="#333333"/>
</svg>
