<svg width="14" height="14" viewBox="0 0 14 14" fill="none" xmlns="http://www.w3.org/2000/svg">
<path fill-rule="evenodd" clip-rule="evenodd" d="M9.625 0C9.8875 0 10.0625 0.0875 10.2375 0.2625L13.7375 3.7625C13.9125 3.9375 14 4.1125 14 4.375V13.125C14 13.65 13.65 14 13.125 14H0.875C0.35 14 0 13.65 0 13.125V0.875C0 0.35 0.35 0 0.875 0H2.625V2.625C2.625 3.15 2.975 3.5 3.5 3.5H7.875C8.4 3.5 8.75 3.15 8.75 2.625V0H9.625ZM2.625 12.25H11.375V9.625C11.375 9.1 11.025 8.75 10.5 8.75H3.5C2.975 8.75 2.625 9.1 2.625 9.625V12.25ZM6.125 0H7.875V2.625H6.125V0Z" fill="#333333"/>
</svg>
