<svg width="22" height="22" viewBox="0 0 22 22" fill="none" xmlns="http://www.w3.org/2000/svg">
<path fill-rule="evenodd" clip-rule="evenodd" d="M10.2929 0.292893C10.3888 0.197017 10.4993 0.124678 10.6172 0.0758787L11.7071 0.292893L11.7075 0.293291L15.7071 4.29289C16.0976 4.68342 16.0976 5.31658 15.7071 5.70711C15.3166 6.09763 14.6834 6.09763 14.2929 5.70711L12 3.41421V15C12 15.5523 11.5523 16 11 16C10.4477 16 10 15.5523 10 15V3.41421L7.70711 5.70711C7.31658 6.09763 6.68342 6.09763 6.29289 5.70711C5.90237 5.31658 5.90237 4.68342 6.29289 4.29289L10.2929 0.292893ZM10.6172 0.0758787L11.705 0.290776C11.5242 0.111056 11.2751 0 11 0C10.8644 0 10.7351 0.0269854 10.6172 0.0758787ZM2 12C2 11.4477 1.55228 11 1 11C0.447715 11 0 11.4477 0 12V21C0 21.5523 0.447715 22 1 22H21C21.5523 22 22 21.5523 22 21V12C22 11.4477 21.5523 11 21 11C20.4477 11 20 11.4477 20 12V20H2V12Z" fill="#F7C56B"/>
</svg>
