<svg width="16" height="16" viewBox="0 0 16 16" fill="none" xmlns="http://www.w3.org/2000/svg">
<g clip-path="url(#clip0)">
<path d="M12.2426 11.1819L9.06066 7.99993L12.2426 4.81795C12.5608 4.49975 12.5608 4.07549 12.2426 3.75729C11.9244 3.43909 11.5002 3.43909 11.182 3.75729L8 6.93927L4.81802 3.75729C4.49982 3.43909 4.07556 3.43909 3.75736 3.75729C3.43916 4.07549 3.43916 4.49975 3.75736 4.81795L6.93934 7.99993L3.75736 11.1819C3.43916 11.5001 3.43916 11.9244 3.75736 12.2426C4.07556 12.5608 4.49982 12.5608 4.81802 12.2426L8 9.06059L11.182 12.2426C11.5002 12.5608 11.9244 12.5608 12.2426 12.2426C12.5608 11.9244 12.5608 11.5001 12.2426 11.1819Z" fill="#333333" fill-opacity="0.3"/>
</g>
<defs>
<clipPath id="clip0">
<rect width="16" height="16" fill="white"/>
</clipPath>
</defs>
</svg>
