<svg width="11" height="10" viewBox="0 0 11 10" fill="none" xmlns="http://www.w3.org/2000/svg">
<path fill-rule="evenodd" clip-rule="evenodd" d="M1.41699 3.75008C1.41699 2.18527 2.68552 0.916748 4.25033 0.916748C5.81513 0.916748 7.08366 2.18527 7.08366 3.75008C7.08366 5.31489 5.81513 6.58341 4.25033 6.58341C2.68552 6.58341 1.41699 5.31489 1.41699 3.75008ZM4.25033 -0.083252C2.13323 -0.083252 0.416992 1.63299 0.416992 3.75008C0.416992 5.86717 2.13323 7.58341 4.25033 7.58341C6.36742 7.58341 8.08366 5.86717 8.08366 3.75008C8.08366 1.63299 6.36742 -0.083252 4.25033 -0.083252ZM9.74289 3.85393C9.57012 3.63851 9.25543 3.60393 9.04001 3.77669C8.82459 3.94945 8.79 4.26414 8.96277 4.47956C9.39936 5.02397 9.61969 5.71036 9.58152 6.40717C9.54334 7.10398 9.24935 7.76219 8.7559 8.25565C8.26244 8.74911 7.60423 9.0431 6.90742 9.08127C6.21061 9.11945 5.52422 8.89912 4.97981 8.46252C4.76438 8.28976 4.4497 8.32434 4.27693 8.53977C4.10417 8.75519 4.13875 9.06988 4.35418 9.24264C5.09073 9.83333 6.01937 10.1314 6.96212 10.0798C7.90486 10.0281 8.79538 9.63038 9.463 8.96276C10.1306 8.29514 10.5284 7.40462 10.58 6.46187C10.6317 5.51913 10.3336 4.59049 9.74289 3.85393Z" fill="#333333" fill-opacity="0.3"/>
</svg>
